/* XPM */
static char *c2d01da3cde247b18f33b8b2b636b12acznsvzYGPnfFSige[] = {
/* columns rows colors chars-per-pixel */
"64 64 202 2 ",
"   c #C628AD",
".  c #010101",
"X  c #1D1711",
"o  c #22251A",
"O  c #252428",
"+  c #392F2E",
"@  c #383526",
"#  c #3B353B",
"$  c #3E3B3E",
"%  c #323034",
"&  c #2C2F37",
"*  c #49342A",
"=  c #473228",
"-  c #433D3F",
";  c #523727",
":  c #4D552D",
">  c #50572F",
",  c #524D3B",
"<  c #5C4839",
"1  c #545931",
"2  c #5C5D35",
"3  c #644E3B",
"4  c #625F37",
"5  c #67513A",
"6  c #625D39",
"7  c #68533B",
"8  c #70573F",
"9  c #636039",
"0  c #6C643D",
"q  c #71633F",
"w  c #48444B",
"e  c #4E4750",
"r  c #524B54",
"t  c #5D545B",
"y  c #555359",
"u  c #52474C",
"i  c #664F4B",
"p  c #755D43",
"a  c #785E45",
"s  c #6E5B5E",
"d  c #685459",
"f  c #725F57",
"g  c #694550",
"h  c #736642",
"j  c #776943",
"k  c #7E6D4A",
"l  c #7A6846",
"z  c #5A5762",
"x  c #635A63",
"c  c #675E69",
"v  c #685E69",
"b  c #695A63",
"n  c #745764",
"m  c #66646B",
"M  c #71646E",
"N  c #6D6875",
"B  c #736C79",
"V  c #756A76",
"C  c #7B727F",
"Z  c #81674C",
"A  c #836D4C",
"S  c #85724E",
"D  c #876E51",
"F  c #8C6E53",
"G  c #886D5B",
"H  c #8D7353",
"J  c #8D735A",
"K  c #877752",
"L  c #917655",
"P  c #937956",
"I  c #94765C",
"U  c #967D59",
"Y  c #9B7C5D",
"T  c #987957",
"R  c #8D5965",
"E  c #817B62",
"W  c #9E7E61",
"Q  c #86777B",
"!  c #887479",
"~  c #8D6976",
"^  c #AB697B",
"/  c #579253",
"(  c #BEB527",
")  c #9D835D",
"_  c #8B825D",
"`  c #A1845E",
"'  c #BAAC58",
"]  c #9F8260",
"[  c #9B8D67",
"{  c #9F9D7C",
"}  c #988B6D",
"|  c #A38562",
" . c #A58A63",
".. c #AB8E65",
"X. c #A58B6D",
"o. c #AA8E69",
"O. c #A98665",
"+. c #B08F67",
"@. c #AE9066",
"#. c #A6926A",
"$. c #AE9269",
"%. c #AA986F",
"&. c #B09167",
"*. c #B2946A",
"=. c #B59A6E",
"-. c #B99C6F",
";. c #A1877C",
":. c #AC9D72",
">. c #A29970",
",. c #B59C73",
"<. c #BA9E72",
"1. c #B09674",
"2. c #BAA06F",
"3. c #BDA275",
"4. c #BEA578",
"5. c #BAAA7C",
"6. c #C1A677",
"7. c #C1A679",
"8. c #C4AA7C",
"9. c #C9AD7C",
"0. c #C8AC75",
"q. c #C6B37E",
"w. c #CBB27F",
"e. c #7B7281",
"r. c #7F7C87",
"t. c #1234FF",
"y. c #857983",
"u. c #8A7883",
"i. c #8A7985",
"p. c #917181",
"a. c #957F8D",
"s. c #B6778A",
"d. c #C66C84",
"f. c #C97188",
"g. c #60FFF4",
"h. c #85818D",
"j. c #8C838C",
"k. c #95828D",
"l. c #9A888A",
"z. c #8E8B99",
"x. c #8C8793",
"c. c #968693",
"v. c #988D96",
"b. c #948C9B",
"n. c #978D95",
"m. c #9C9198",
"M. c #AB8A9B",
"N. c #A39898",
"B. c #B09F92",
"V. c #BFA983",
"C. c #B8A48A",
"Z. c #ACA098",
"A. c #BBAD97",
"S. c #BFBE90",
"D. c #9492A1",
"F. c #9995A5",
"G. c #9D99A7",
"H. c #9C9AAB",
"J. c #A19BAC",
"K. c #AEA5A5",
"L. c #A4A5B7",
"P. c #B0AEB9",
"I. c #C5AD80",
"U. c #CBAE82",
"Y. c #C6B183",
"T. c #CBB484",
"R. c #CCB984",
"E. c #CDB789",
"W. c #CFBB8A",
"Q. c #C1BF8F",
"!. c #D2BD8B",
"~. c #D0B987",
"^. c #D1BE91",
"/. c #CDC387",
"(. c #D4C28D",
"). c #D9C38E",
"_. c #DCC88F",
"`. c #D6C592",
"'. c #DCCB93",
"]. c #D9C797",
"[. c #DFD296",
"{. c #C7C493",
"}. c #E2CF97",
"|. c #E3D496",
" X c #E4D49C",
".X c #E9DB9D",
"XX c #E9D99A",
"oX c #F3E29E",
"OX c #CFCDA1",
"+X c #CDC4B0",
"@X c #EDDDA2",
"#X c #F0DDA2",
"$X c #EFE9AC",
"%X c #EFE6A9",
"&X c #F4E4A5",
"*X c #F9E7A7",
"=X c #FAEDAC",
"-X c #F5E8AA",
";X c #FAF6B8",
":X c #F2EDB0",
">X c #AEAEC1",
",X c #B7B7CD",
/* pixels */
"                                                                                                                                ",
"                                                                                                                                ",
"                                                                                                                                ",
"                                                                                                                                ",
"                                                                                                                                ",
"                                                                                                                                ",
"                                                                                                                                ",
"                                                                                                                                ",
"                                                                                                                                ",
"                                                                                                                                ",
"                                                                                                                                ",
"                                                                                                                                ",
"                                                                                                                                ",
"                                                                                                                                ",
"                                                                                                                                ",
"                                                                                                                                ",
"                                                                                                                                ",
"                                                                                                                                ",
"                                                                                                                                ",
"                                                                                                                                ",
"                                                                                                                                ",
"                                                                                                                                ",
"                                                                                                                                ",
"                                                                                                                                ",
"                                                                                                                                ",
"                                                                                                                                ",
"                                          r.F.m                                       D.z.                                      ",
"                                            B D.D.          5.#.:.:.:.[ >.          D.>Xm                                       ",
"                                          L.J.y.,X    ;X*X&X XR.8.!.8.3.'.&X*X*X  z >Xj.b.                                      ",
"                                        z.>Xi s h.L.C.8.8.8.8.<.$.=...$.7.8.8.8.0.L.x.s z.                                      ",
"                                        h.j.d i B K.V.8.8.<.| *.*.....=.....7.8.0.K.V b h.P.                                    ",
"                                          B s G ,.I.8.3...D 3.4.*.O...7.4.D ` <.8.8.=.J x                                       ",
"                                          B N Q ) 8.8.L ,.I.8.8.=...$.6.8.!.4.L 8.8. .f x                                       ",
"                                              h 9.8.=.8.W.8.8.=.$.*.*.*.8.8.E.Y...8.8.k                                         ",
"                                              7 *...$.I.8.8.=...Y *.*.W =.8.8.8.$.*.*.l                                         ",
"                                            :X$X@X . ...*.=.W | | *.*.| | 4...3.+.|  X$XOX                                      ",
"                                          S.@ E ;X,.J &.*.I ......&.$.$...| &.*.I X.;X{ @                                       ",
"                                        >..X$ m _ ,.W  ...$.<.3.<...*.-.3.....]  .1.} / o {.                                    ",
"                                        &X4.. . l 9.<.$...8.8.8.8.=...8.8.8.<.$...8.3 . X H Q.                                  ",
"                                    [ |.o.Y & O 5 W | +.7.8.Y.8.*.*...*.T.8.8.<.$.W 3 % - Y X.5.                                ",
"                                  [  X7.Y 8.z w <  . .*.8.8.8.*.$. .| ..<.E.8.3.|  .< y m (.Y 8.                                ",
"                                  /.3.*.Y (.&X@XE.| 3.8.8.7.$.$.$.| | $.$.$.8.8.8.O.=.%X&X.XT 3.=X X                            ",
"                                %X[.$...Y 8..X`.8...3.8.8.=.Y ..Y | I ..*.$.3.8.8...o.(.(.`.Y | Y.`.                            ",
"                                ).$.<.=... .E.3.T $.3.8.=.$.I J I &.*.J F J $.8.8.$...F T.T.Y *.*.'.                            ",
"                              , ).7.8.8.<.*.*.Z ..<.8.8.8.*...;.n.G.G.v.X.$...8.8.3...A Z  .,.8.8.8.XX,                         ",
"                              5.!.3.3.8.8.=.&...*.3.8.8.8.<.;.l.F.D.F.H.l.;.w.8.8.7.*. . ...8.8.-.3. X,                         ",
"                              ~.3...8.8.8.=.$...=.8.3.~.8.u.k.b.b.b.z.D.c.k.l.XX3.8.3.......8.8.8...8.%.                        ",
"                              8.<.*.8.8.<.*.$...8.8.*.-XC.k.u.i.a.y.C c.u.i.k._.-.8.8.=.$.$.3.8.8.$.7.#.                        ",
"                              8. .8.8.7.$...$...8.7.=.@Xv.! t M u.x e u.x e.Q A.8.3.8.=.*.$.*.7.8.<. .$.                        ",
"                            `.....T.8.=.Y  .<.7.7.3.!.7.m.. # r t x e t r r O Z.'.8.3.3.7...Y =.q.8...3..X                      ",
"                          oX'.<.../.q.-.| =.8.8.<.E.Y.Y.m.# $ r z x r t r # w N.w.^.$.8.8.=. .<.R.q.$.8.|.                      ",
"                          |.`.8.8./.q.*...3.8.7.$.E.(.|.m.d t v C c r v t t x A. XW.*.3.8.3...*.R.R.8.8.[.                      ",
"                          |.8.7.8.R.8.7.7.8.8.<.3.). XXXN.B c B C c r e.V c e.+XXX'.6.=.8.8.7.7.R.q.8.,.T.                      ",
"                          |.3.=.8.8.8.8.8.8.8.8.I.W.W.!.].V.C C C v r C C C V.!.!.!.Y.8.8.8.8.8.8.8.8.$.7.                      ",
"                          w.=.*.8.=.8.8.8.8.E.Y.W.`.!.(.E.Y.p.d.d.R g ^ d.r.E.!.(.!.`.Y.T.8.8.8.7.3.8...<.                      ",
"                          *.-.] 8.$.3.8.8.T.7.8.Y.E.(.R.'.`.k.s.f.~ d f.s.k.].!.(.W.E.8.3.T.8.8. .3.9. .<.                      ",
"                          ......8.,.H 6.8.8.8.8.<.|.!.8.XX Xl.k.f.~ d f.a.k.'.}.(.!.3.8.<.8.8.3.$.3.8.| &.                      ",
"                          3. . .$.3.o.p P =.=.,.3.T.!.8.~.'.B.c.M.p.n M.c.C.`.!.(.E.<.,.$.=.H p =.4.| | ..                      ",
"                          8.3. .| .. .S A 8 2.<.3.3.8.'.Y.=.;XJ.+ +   u P.=X*.'.!.I.=.3.P 5 p H 7.) ) $.8.                      ",
"                          8.3.H $...$. . . .A H ) 0.W.#X0.!.=X* * * = 3 =X&XR.).Y.#.U l k D H ..*...$.U 8.                      ",
"                          8.3.l $.........$.) U k 0 2 1 2 4 > : q q q 0 2 9 Y.6 2 A k k ) | $.......*.H 8.                      ",
"                          8.3.3 U ............) U 0 9 2 9 h : h q j 4 0 j 2 1 2 0 j 0 | ..| ......$.p A 8.                      ",
"                          8.8.=.H $.| $.........) U S 9 2 9 0 9 1 j 2 1 2 4 2 9 h j ) .. .........$.; U.0.                      ",
"                          8.3.P L ) p $......... .) ) j A 1 K 9 2 j 1 h 2 1 1 j S ) $...........@.' g.( t.                      "
};
