/* XPM */
static char *a0dc04167f834d0fe2d05ebf4840ae38FKvrhqMWw0ICNTn0[] = {
/* columns rows colors chars-per-pixel */
"64 64 132 2 ",
"   c #C628AD",
".  c #010101",
"X  c #0F0C07",
"o  c #0F0C08",
"O  c #120E09",
"+  c #16110B",
"@  c #1A140E",
"#  c #1D1710",
"$  c #1E1911",
"%  c #1D1C1C",
"&  c #241D15",
"*  c #282117",
"=  c #2D251A",
"-  c #30271C",
";  c #33291E",
":  c gray13",
">  c #2B2724",
",  c #2F2E2E",
"<  c #372C21",
"1  c #382D22",
"2  c #3C3126",
"3  c #3E352C",
"4  c #373330",
"5  c #3B3B3B",
"6  c #43372A",
"7  c #45392D",
"8  c #493B2E",
"9  c #463C35",
"0  c #4C3E32",
"q  c #413F3D",
"w  c #4E4033",
"e  c #4E423A",
"r  c #524335",
"t  c #554639",
"y  c #54483E",
"u  c #5D4D3D",
"i  c #604F3D",
"p  c #474848",
"a  c #4E4D4D",
"s  c #5F4E41",
"d  c #5E5249",
"f  c #545454",
"g  c #5C5B5C",
"h  c #645242",
"j  c #695645",
"k  c #6B5947",
"l  c #63554B",
"z  c #65584D",
"x  c #6C5A4A",
"c  c #725D4B",
"v  c #6A5C52",
"b  c #665F5B",
"n  c #76614E",
"m  c #78634F",
"M  c #6F6155",
"N  c #66625F",
"B  c #746253",
"V  c #786350",
"C  c #7C6956",
"Z  c #74655A",
"A  c #796A5D",
"S  c #7A6A5D",
"D  c #78695E",
"F  c #796A5E",
"G  c #7A6B5F",
"H  c #7D6A5A",
"J  c gray40",
"K  c #676767",
"L  c gray40",
"P  c #686767",
"I  c #686868",
"U  c #7C6C60",
"Y  c gray45",
"T  c #747474",
"R  c gray47",
"E  c #7B7B7B",
"W  c #7C7978",
"Q  c #797979",
"!  c #FF6E3C",
"~  c #816F5F",
"^  c #826E5F",
"/  c #816E5E",
"(  c #827160",
")  c #847163",
"_  c #837265",
"`  c #847366",
"'  c #877667",
"]  c #867466",
"[  c #877668",
"{  c #877669",
"}  c #887769",
"|  c #887668",
" . c #89776A",
".. c #887669",
"X. c #89786B",
"o. c #89786A",
"O. c #8A786B",
"+. c #8A796B",
"@. c #8B796B",
"#. c #8A786A",
"$. c #8A786C",
"%. c #8A796C",
"&. c #8B796C",
"*. c #8B786C",
"=. c #8A786B",
"-. c #51DA4C",
";. c #FFFF66",
":. c #3C46FF",
">. c #42FFFF",
",. c #868686",
"<. c #848383",
"1. c #888888",
"2. c #888989",
"3. c #888888",
"4. c #929292",
"5. c #989898",
"6. c #A09FA0",
"7. c #A5A5A5",
"8. c #A3A3A3",
"9. c #AEAEAE",
"0. c gray73",
"q. c #BBBABB",
"w. c #BBBBBB",
"e. c #BABABB",
"r. c #C5C5C5",
"t. c #CECECE",
"y. c #CECECE",
"u. c #D0D0D0",
"i. c #D2D1D1",
"p. c #D5D5D5",
"a. c gray82",
"s. c gainsboro",
/* pixels */
"                                                                                                                                ",
"                                                                                                                                ",
"                                                                                                                                ",
"                                                                                                                                ",
"                                                                                                                                ",
"                                                                                                                                ",
"                                                                                                                                ",
"                                                                                                                                ",
"                                                                                                                                ",
"                                                                                                                                ",
"                                                                                                                                ",
"                                                                                                                                ",
"                                                                                                                                ",
"                                                                                                                                ",
"                                                  0.. . . . . . . . . . . . . . .                                               ",
"                                                g , & & & = t h h h h h h h z Z M 5 4.                                          ",
"                                              2.> & = 2 u u c V V V V h r r A o.o.v b 7.                                        ",
"                                      t.0.0.0.@ = < 7 t V V V V V V n w 9 t F o.o.o.M N 0.0.u.                                  ",
"                                      E . . . * = 8 n V V V V V V V x 1 v $.o.o.$.o.$.F . . ,.                                  ",
"                                    J # = = = = t n V V V V V V V V } } o.o.o.o.o.$.o.o.o.$.M J                                 ",
"                                E : & = = = ; < k V V V V V n t 7 ) o.o.o.o.o.o.o.$.$.$.$.$.v . %                               ",
"                                Y . & = = - < t c h r n V V n w 2 { o.o.o.o.o.o.o.o.$.$.o.$.v . .                               ",
"                                Y + = = - ; - j u 0 1 n V V h 6 6 { o.o.o.o.o.o.o.o.o.o.o.o.` v .                               ",
"                            s.2.5 # = - ; < u c < 8 x V V V 0 - 2 { $.o.o.o.o.o.o.o.o.o.o.o.o.F . J 9.                          ",
"                            u.. & = - ; < 1 n n c c V V V V c c c } o.o.o.$.o.o.o.$.M 0 w Z o.} _ 9 2.                          ",
"                          r.5.. & = ; ; 6 n V V V V V V V V h u u H o.o.$.$.o.o.o.o.v - < t Z o.$.9 2.                          ",
"                          J X = = = - = 6 n V V V V V V V n 0 < < m H o.$.o.o.$.o.o.o.o.v - y $.$.9 2.                          ",
"                          J o = = = - 7 n V V V V V V V u < < 0 n V V H o.$.$.o.H ( } $.} v y $.$.9 2.                          ",
"                          J o = = = < 2 u n V V V x u u j u u h m V V V H o.F z r C ' $.$._ M $.$.9 2.                          ",
"                          J o = - ; < < 1 h V V V j 0 < j m m m m V V V V } v = = Z o.$.$.$.$.$.$.d W p.                        ",
"                          P o = - < < < < < m V V V V < 0 m h u u V V V V ~ h 2 o.$.$.$.$.F Z $.$.$.v .                         ",
"                          J o = = - < < < < j n V V V V m m w < 1 V V V V V C U o.$.$.$.$.z y $.$.$.v .                         ",
"                          I o = - < < < < < < k V V V V V m m 0 6 V V V V V ~ o.o.o.$.$.$.z y $.$.$.v .                         ",
"                          J O = - - ; < < 1 < 8 0 u V V V m m n n x 0 0 r V ~ o.o.o.$.$.Z 3 y $.$.$.v .                         ",
"                          J O = = = - < < < < < < r V n m m V V V x 7 7 h V V C o.o.$.$.Z e l o.$.' s .                         ",
"                          g O = = = = - < < < < < < 1 < < 1 k V V V V V V V V V V ' o.$.o.o.o.o.' C r .                         ",
"                          f O = = = = - ; < < < < < < < < < 1 w V V V V V V V V V C ~ o.' ' o.} m 8 & .                         ",
"                          f O = = = = = = - < < < < < < < < < 6 u u x V V V V V u u x ~ H H ~ ~ V 8 # .                         ",
"                          f O = = = = = = - ; < < < < < < < < < < < t c V V V V < - u n k c V n j 6 # .                         ",
"                          a O = = = = = = - - ; < < < < < < < 1 1 < < u n n n n n n n j 1 u n c < = # .                         ",
"                          a O = = = = = = = - - - < < < 1 < < < < < < 1 1 1 1 1 n k j t < < 6 i - = # .                         ",
"                          p . . * = = = = = = - - - < < < < < < < < < 1 1 1 1 1 n 6 1 < < < - = = O . .                         ",
"                            0.. * = = = = = = = - - < < < < < < < < < < 1 1 1 < < < < ; ; - - = = O E                           ",
"                              0.a @ = = = = = = - - < < < < < < < < < < < 1 < < < < ; = = = = * O 7.t.                          ",
"                                6.2.4 * = = = = = = = ; ; ; ; ; < < < < < < < < < = = = = = = q 2.                              ",
"                                    f @ * = = = = = = = = = = - ; - ; < < = - = = = = * = = & Y                                 ",
"                                      E . + = = = = = = = = = = = = = = = = = = = = # . . . <.                                  ",
"                                      t.0.8.O O O O O O O O O O O O O O O O O O O O E 0.0.0.u.                                  ",
"                                            Y Y Y T T T T T T T T T T T T T T T T T 0.                                          ",
"                                                                                                                                ",
"                                                                                                                                ",
"                                                                                                                                ",
"                                                                                                                                ",
"                                                                                                                                ",
"                                                                                                                                ",
"                                                                                                                                ",
"                                                                                                                                ",
"                                                                                                                                ",
"                                                                                                                                ",
"                                                                                                                                ",
"                                                                                                                                ",
"                                                                                                                                ",
"                                                                                                                                ",
"                                                                                                                                "
};
