/* XPM */
static char *bdd0650a5f314864de8bc21ffde5fcc2aW5DQEfYZHgpWScB[] = {
/* columns rows colors chars-per-pixel */
"64 64 238 2 ",
"   c None",
".  c #070608",
"X  c #0A0A0A",
"o  c #160408",
"O  c #0F1710",
"+  c #131315",
"@  c #1C1815",
"#  c #1C1B1B",
"$  c #2F170F",
"%  c #25231C",
"&  c #39231C",
"*  c #1F1C20",
"=  c #252226",
"-  c #2C2528",
";  c #372B27",
":  c #383327",
">  c #2F2C32",
",  c #39353A",
"<  c #432D27",
"1  c #463228",
"2  c #48372B",
"3  c #543C2D",
"4  c #443A37",
"5  c #4E4A2A",
"6  c #48542B",
"7  c #4C562D",
"8  c #50552E",
"9  c #52582F",
"0  c #444135",
"q  c #4A4638",
"w  c #5C4536",
"e  c #555A32",
"r  c #5C5D35",
"t  c #595839",
"y  c #63432D",
"u  c #644A37",
"i  c #6C523D",
"p  c #625C38",
"a  c #6C5D3C",
"s  c #616237",
"d  c #65623A",
"f  c #6C643E",
"g  c #71653E",
"h  c #70683F",
"j  c #3B3A42",
"k  c #403C42",
"l  c #47454B",
"z  c #554C4B",
"x  c #564E54",
"c  c #5A4E55",
"v  c #575158",
"b  c #5B535B",
"n  c #674D48",
"m  c #675645",
"M  c #715743",
"N  c #735B42",
"B  c #695858",
"V  c #735A59",
"C  c #6D6640",
"Z  c #746541",
"A  c #756943",
"S  c #7A6B45",
"D  c #7B674A",
"F  c #7B7052",
"G  c #5C5963",
"H  c #635A62",
"J  c #665B65",
"K  c #6C5D64",
"L  c #785E67",
"P  c #64636D",
"I  c #6D646E",
"U  c #72646C",
"Y  c #7B666D",
"T  c #6A6774",
"R  c #726772",
"E  c #746A75",
"W  c #786D78",
"Q  c #7B6E7B",
"!  c #76727F",
"~  c #7B717E",
"^  c #FF5E19",
"/  c #84694A",
"(  c #826C4B",
")  c #85714D",
"_  c #8A744F",
"`  c #846953",
"'  c #8C6E54",
"]  c #8E625D",
"[  c #8C6C5A",
"{  c #906F51",
"}  c #8D7354",
"|  c #887654",
" . c #8D715A",
".. c #927455",
"X. c #937A56",
"o. c #987857",
"O. c #94745B",
"+. c #947B5A",
"@. c #9B7D5C",
"#. c #917862",
"$. c #9C7D61",
"%. c #8D7475",
"&. c #87767A",
"*. c #A27E62",
"=. c #A86879",
"-. c #2FE931",
";. c #67AC63",
":. c #8A815E",
">. c #9D825D",
",. c #A08057",
"<. c #A2845E",
"1. c #A7895F",
"2. c #AA8B5F",
"3. c #B18D5F",
"4. c #9E8161",
"5. c #958D6B",
"6. c #928975",
"7. c #A38562",
"8. c #A68963",
"9. c #AB8D65",
"0. c #A78C6A",
"q. c #AB8C69",
"w. c #B18F66",
"e. c #AE9166",
"r. c #AE9269",
"t. c #B19266",
"y. c #B2946A",
"u. c #B6996D",
"i. c #B99B6E",
"p. c #A68872",
"a. c #AB9776",
"s. c #B69C72",
"d. c #B29877",
"f. c #BA9D72",
"g. c #ADA57C",
"h. c #BDA275",
"j. c #BEA479",
"k. c #B9A87B",
"l. c #C0A476",
"z. c #C8AB75",
"x. c #C1A679",
"c. c #C4AB7C",
"v. c #C8AE7E",
"b. c #C5B17E",
"n. c #CBB17E",
"m. c #D1B376",
"M. c #FFFF53",
"N. c #7A6F83",
"B. c #7C7482",
"V. c #7B7687",
"C. c #1234FF",
"Z. c #936F81",
"A. c #827684",
"S. c #887887",
"D. c #8C7C8C",
"F. c #967E8B",
"G. c #897C97",
"H. c #AE7789",
"J. c #AA798A",
"K. c #B8778A",
"L. c #CB6E86",
"P. c #D46F8A",
"I. c #CF728B",
"U. c #26FFFF",
"Y. c #8C818D",
"T. c #998987",
"R. c #93818D",
"E. c #8B8799",
"W. c #9A8492",
"Q. c #988995",
"!. c #938C9D",
"~. c #9E9191",
"^. c #A5948C",
"/. c #B49E82",
"(. c #A48B94",
"). c #A49897",
"_. c #B9AB84",
"`. c #BBB080",
"'. c #B6A796",
"]. c #9490A6",
"[. c #9994A5",
"{. c #9A95A4",
"}. c #9C9AAA",
"|. c #A49CAC",
" X c #9FA0AF",
".X c #ABA6AC",
"XX c #A7A5B7",
"oX c #ACABBD",
"OX c #B9B5B7",
"+X c #C5AE81",
"@X c #C8AF81",
"#X c #C1AE8C",
"$X c #C6B282",
"%X c #CBB383",
"&X c #CCBA85",
"*X c #CAB689",
"=X c #CEBB8A",
"-X c #D0B584",
";X c #D2BB86",
":X c #D1BC8B",
">X c #D9BC89",
",X c #CFB790",
"<X c #CDC385",
"1X c #CDC28A",
"2X c #D0C687",
"3X c #D5C28D",
"4X c #D9C38E",
"5X c #D4C391",
"6X c #DBC691",
"7X c #DCCA93",
"8X c #D6CA98",
"9X c #D8C899",
"0X c #E0CB8D",
"qX c #E2CE94",
"wX c #E0CE98",
"eX c #E3D396",
"rX c #E4D49A",
"tX c #E9D59A",
"yX c #E6DA9B",
"uX c #EADB9D",
"iX c #F2E39F",
"pX c #E6DAA0",
"aX c #EDDDA1",
"sX c #F3DFA4",
"dX c #EEE2A4",
"fX c #F4E4A5",
"gX c #F7E8A6",
"hX c #FCECAB",
"jX c #FEF2AD",
"kX c #FFFAAF",
"lX c #F9EEB1",
"zX c #FFF4B3",
"xX c #FFFDB9",
"cX c #ADAFC6",
"vX c #B5B5C8",
"bX c #C5C4D7",
"nX c #FFFFC2",
"mX c #FFFFCA",
/* pixels */
"                                                                                        .     .                 .   .           ",
"          .               .                     .             .       .                                                         ",
"                .                       .                                                           .                           ",
"                                                .                                                                             . ",
"                          =  X[.}.k                                                             }.!.}.v       .       .         ",
"                          # N.P  XT , .               X q 4 q 0 0 4 0 4 0 0 :               + j vXoXE.k                       . ",
"              .           . + X ! vXbX+       % @ @ @ q hX>X0XqXeXqXeXqXn.uX$X+ % % %       l vXXXcX,                           ",
"                          = bXXXY S.vX        nXjXhXhXgXtX2Xb.c.:X:Xc.c.h.4XaXgXhXjXhX      > cXXX&.|.P           .             ",
"                .       E.oXoXn n Q.vXXXXX'.l.v.c.j.j.j.j.c.h.9.%Xj.9.8.i.x.x.x.l.l.c.c.z.oXXXXXvXn !.G                         ",
"  .                     E.oXcXm V 3 & cXXX.Xz.x.c.c.c.c.c.h.9.e.9.9.e.t.9.h.c.c.c.c.c.v.z.XXcX&.w m  Xv                 .       ",
"        .               !.oXV B V n < cX|.'.x.c.c.c.c.9.e.2.e.e.w.9.9.e.9.9.w.8.c.v.x.c.z..XXXA.K U W vXbX>                     ",
"                        z G U V V z ; cX_.c.c.c.b.y.r.9.} y.j.y.y.9.9.e.c.9.O.q.9.f.c.c.x.z.^.J B K R T b +               .     ",
"    .                     + B.K B O.i.#Xc.c.c.l.i.<./ D c.c.h.y.q.7.9.8.c.@Xh./ } 7.u.f.c.c.x.u.f.V I >                       . ",
"                          # B.T W #.8.b.c.c.v.8.<.>.y.5Xc.c.h.h.w.7.8.l.l.c.x.6X7.@.*.9.v.c.+Xs.i.V E ,               .         ",
".       .                 # E G |.U ; %Xc.c.%XN 4.5X%X=Xx.c.l.y.w.w.y.9.c.+Xc.=X:X3XD D %Xc.v.+.< c K ,         .               ",
"                                  a v.v.c.l.8.j.%X:X$Xx.c.h.8.y.w.u.u.9.y.l.c.x.%X;X*Xx.8.l.v.c.-X%                             ",
"                .                 D @Xx.9.f.9.@X$X@Xx.c.c.f.9.w.t.u.u.w.9.h.v.c.c.c.$Xc.9.h.9.c.-X<                           . ",
"            .                     w 8.9.w.w.9.@Xc.c.v.c.9.9.*.O.w.u.u.8.O.7.y.+Xf.v.c.+X9.w.w.9.w.@                             ",
"                        .     mXxXxXlXk.7.7.t.9.c.9.u.@X*.7.7.@.w.u.u.9.$.*.7.%X9.9.@X2.w.7.9.9XlXxXmXF         .               ",
"    .                     X @ _.a.1XlX+X#.O.9.w.e.w.7.q.` O.t.t.t.u.i.t.y.$.O.7.e.w.t.w.q.O.q.rXlX_.g.q                         ",
"          .               : nX    :.mXgXd.[ [ w.y.w.O.O.y.9.9.9.w.t.9.9.w.9.9.7.w.e.t.y.[ [ +XzXmX=               .             ",
".     .                 C 5.jX  oX+   fXq.[ $.#.[ t.t.t.9.i.f.u.9.t.t.t.y.i.y.9.w.y.' [ @.[ #X5.  ;.O @ :.X                     ",
"                        1XhXhX  bX    aXd.O.y.t.w.9.9.9.v.c.c.x.8.w.y.9.h.v.c.9.2.9.y.y.y.@.#X5.  ;.O q xX@                     ",
"            .         mXfX7Xo.        %Xv.v.w.w.w.9.x.v.c.x.c.c.-X9.9.9.@Xc.c.v.n.t.8.y.w.z.c.M       : ..nXt             .     ",
"                  F $XgXs.7.0.        i.7.*.w.w.f.f.+Xc.c.c.c.i.i.9.e.9.f.-X$Xc.c.l.f.w.t.$.q.m       : 0.#.k.k.                ",
"                % `.dXh.@...O.j l #   9.$.O.w.q.f.@Xc.c.%X$Xi.r.w.w.9.w.t.c.=Xc.c.c.x.9.t.O.$.u   l j B @.` f.$X3 X             ",
"              C k.fX2X8.o.4.b.T B.>   $.8.q.*.y.l.c.c.@Xb.x.9.e.y.8.8.9.9.i.@X*Xx.c.x.9.@.8.9.n   ! P 6.b.{ 9.h.wX#             ",
"      .       8XfXpX<.y.@.0.zX        0.7.8.9.u.c.c.c.5Xw.9.9.e.9.@.@.w.9.9.w.:X%Xc.x.8.y.*.9.u       2 hX..8.c.zX.             ",
"    .         1X=X<.w.y.@.q.dXjXjXfXtX$.8.u.@Xc.c.c.@X9.9.t.e.e.w.7.@.t.w.e.9.1.v.c.c.v.v.q.7.y.tXkXzXgXyX..@.y.dXzXrX          ",
"            7XrXx.9.t.o.o.q.6XaX2X7X2X4.w.y.c.c.c.c.h.y.<.7.9.4.w.@.O.7.9.w.e.9.f.x.c.c.@Xt.9.8.3X3X3X7X4Xo.@.X.$X6X5X          ",
"  .         xXyX9.9.w.9.*.9.:XuX=X6X:X4.q.t.@Xc.x.@Xy.t. .7.t. .e.<.....q.y.y.y.8.x.c.c.c.9.w.7.5X;X:XrX6Xo.2.9.1.c.5X          ",
"            4Xt.9.l.u.9.9.7.8.%X6Xy./ y.9.y.c.c.+X8.9.t.[  . . .2.t.t.t.' [ } ` y.w.c.c.@X9.9.9.' } %X6X&X..<.e.v.<.;XjXO       ",
"        0 k.c.f.f.c.x.x.7.<.w.h./ ..{ y.f.h.c.c.c.f.y.y.7.o.{ / ).).).~.' } O.9.t.9.v.c.c.h.f.8.../ q.' *...r.l.c.h.y.tX$X:     ",
"        t hXx.c.v.c.v.c.h.f.w.u.1 ' u.9.h.c.j.c.c.c.y.w.w.3.!.}.}.}.}.}.[.^.t.t.q.9.c.c.c.c.f.9.i.u M w t.h.x.c.c.c.c.l.hXm     ",
"      : 5.sXl.v.9.c.c.x.v.l.9.t.@.q.y.9.h.c.c.c.c.c.u.q.p.0.!.[.!.}.}.}.XX~.p.p.u.y.c.c.c.c.f.9.t.<.8.>.t.@Xc.c.c.e.c.l.fXt     ",
"      g.gXf.@X9.u.c.c.x.c.h.9.t.9.q.9.s.c.c.c.c.x.c.-Xf.G.D.}.[.R [.[.Y.[.!.F.D.m.zXx.c.c.c.h.u.w.9.9.9.9.c.c.c.c.h.<.b.-X:     ",
"      | ;Xc.u.7.h.c.c.c.c.h.9.r.e.9.y.c.c.c.u.;X>Xj.N.S.W.F.[.[.E {.[.R [.!.F.W.Q &.gX-Xf.c.c.x.9.9.9.y.9.c.c.c.c.@X7.y.c.>XD   ",
"      F v.v.9.9.c.c.+Xc.c.h.9.y.9.9.@Xc.c.h.>.hXeXh.S.D.W.W.Q.D.E [.[.E R.Q.W.W.S.F.0XgX9.j.c.c.%X8.9.e.9.c.x.c.c.v.9.9.c.%Xm   ",
"      F -Xc.9.w.c.c.c.c.t.9.w.y.r.9.c.c.c.x.@.hX_.~.(.(.J K F.F.~ R z Q Q.~ U A.W.T.j.gXr.h.c.c.v.9.9.t.y.9.f.v.c.c.u.9.+X-Xm   ",
"    . | %X7.9.c.c.c.c.x.y.9.e.q.9.9.c.c.c.j.<.gX/.!.%.&.x x S.D.Q c # B.F.K b N.&.R.T.gXr.h.c.c.v.8.w.t.e.9.f.x.c.c.l.9.9.%XC X ",
"    uXn.2.e.2.c.c.b.y.2.+.@.y.9.v.y.c.c.e.u.dXh./.E.  + R H v x I b = Q v c J !.  > E.fXhXr.y.+Xc.9.$X9.9.[ <.9.c.x.c.9.9.9.;XgX",
"    7Xb.e.e.2.&Xn.x.h.e.@.7.9.h.c.c.c.y.c.6X%Xc./.].    . - G v I v = A.v G , X   > E.2X:X,Xj.s.c.c.c.i.9.O.8.i.c.%X&X9.w.8.n.eX",
"  gXyXc.t.r.2.2X<Xx.h.2.*.8.u.c.c.c.@X1.:X&Xh.c._.!.+ = * j H v I b = S.c B j + # k E.z.l.qX@X9.v.c.c.h.w.@.8.f.c.<X2X8.e.y.&XeX",
"  eXyX%Xc.t.e.<X<Xc.u.e.e.y.c.c.c.c.y.1.=X$X3X7Xd.E.H H G b B J E G = A.v v H H B U G.qX7X9X+X8.u.c.c.c.f.w.r.r.c.&X2Xw.y.b.&XeX",
"  eXrXh.c.c.c.<X<Xc.y.e.9.y.c.x.c.j.9.y.:X%XrXtX#X!.B v v J T B.A.b = S.J G v B v J {.uXtX9X$Xy.y.j.c.c.h.9.9.w.c.<X<Xc.v.c.c.7X",
"  tX<Xe.c.c.&X<Xn.c.c.e.h.c.c.c.c.t.9.c.5X3XrXtXOX].T E v I N.Q B.b = S.B.T G v U ! OXtXtX9X;Xl.9.y.c.c.x.h.s.l.c.<X2Xx.c.c.e.3X",
"  eXh.r.h.c.b.c.c.c.c.c.c.c.c.c.c.u.+Xl.7XfXaXdX9XV.! ! R E Q N.B.b = S.~ B.E P B.G.OXiXuXfX6Xx.c.u.c.c.c.c.c.c.l.<Xb.x.c.k.e.h.",
"  yXk.r.u.c.c.c.c.x.c.c.c.c.c.c.c.c.+X@X=X&X=X=X7X8X%XT.B.N.W N.B.v = V.N.~ B.! 6.%X;X&X:X=X:X$Xc.c.c.c.x.c.c.c.c.c.x.c.b.r.e.h.",
"  n.h.e.u.c.c.c.c.c.c.c.j.c.x.x.$X=X=X%XeXwXrX7X%X=X;X6.&.=.=.=.=.V * H.=.=.=.T 5X;X7XwXrXrX*X*X=X=Xc.c.c.j.c.c.c.c.+Xc.c.r.e.h.",
"  n.i.<.y.c.c.r.h.c.c.c.c.c.$X=X$Xc.c.dX3X=X%X:X=X%X:XT.Z.L.P.P.=.] * H.=.L.P.V._.&X%X3X*X%X4XrXc.+X=X&Xc.c.c.c.c.h.y.c.+Xy.7.h.",
"  y.c.9.@.b.+Xy.@.c.c.c.c.&X&Xc.h.c.$X6X$X:X$X:X7XeXtX).F.K.K.P.H.L - (.L.L.J.D.'.tXk.7X=Xc.:X5Xc.c.h.c.=X%Xc.c.c...s.c.c.+.u.h.",
"  9.r.>.0.v.c.y.4.&Xc.c.c.c.c.j.h.+Xy.x.3XyXtXh.3X6XeX^.Y.J.K.L.J.L - (.I.K.J.D.'.uXdXh.wXrX;Xh.y.c.s.k.c.b.c.c.&X} f.c.$X7.>.e.",
"  r.t.>.q.c.c.f.l.y l.c.c.c.c.c.h.c.u.+XyXj.7Xj.eXuXuXrXD.F.R.L.K.L > K.L.F.R.D.=XeXyX3X:X+XwXh.s.$Xs.j.c.c.c.c.u c.s.c.c.7.4.t.",
"  y.9.>.r.7.b.b.%X>.i i u.c.$X7.f.@Xy.+X%X;XwXl.6X4X7XyXS.D.D.K.K.] > I.H.R.R.A.iX4X6X%XaX%X@Xx.u.*Xr.r.$Xh...u <.%Xb.n.>.r.>.y.",
"  b.8.>.>.>.e.i.X.q.( N u / 2.c.@.7.%Xy.*X5Xl.+X&X@X*XaX#XQ.!.|.|.N.= oX}.!.~.,XfX$X:Xx.+X9Xx.u.@X..q.y.,.u i i >X/ x.1.>.>.>.9.",
"  c.z.y.8.4.>.8.c._ / | / a w z.<.v.c.9.j.s.*XrX@X%Xf.y.nXoX}.; 4 ; @ , x oX.XkX9.u.6XpX%X@Xx.9.-Xl.>.( u i ( ( <.v.>.>.>.7.y.j.",
"  v.c.h.r.r.r.8.c.e.9.2 8.1.>.2 ( ,.f.l.l.;XaX=Xt.v.t.%X  o $ 2 1 1 3 1 & o o   -X9.4XtXfX*Xc.+Xy a ) N u u _ 5.y.v.7.r.r.y.h.b.",
"  c.v...Z r.9.9.8.r.e.>.r.8.0.X.X.S f y.n.( sXhXsXw.tX$XzXy 1 1 1 1 1 < N zXgXgX-X6Xl.hX8.d.a A F S ) i +.( e.9.9.8.r.r.r.i >.c.",
"  c.n.+.Z r.9.9.e.r.e.e.e.9.e.+.>.X.) r A p 6 9 C 8 r d e 6 9 g M a a a a t e p g hXt 7 d S ) ( h ) _ 2.2.r.9.9.9.9.9.9.y.N 4.b.",
"  c.b.+.D i.9.9.r.8.8.r.8.e.e.r.0.X.X.7 f A 7 8 r p f 8 7 7 r h / Z S Z h p r e S 6 ( 6 t _ _ S s ) e.>.>.r.9.9.9.9.r.9.i.N <.v.",
"  c.z.+.w i r.e.9.9.9.9.e.9.9.9.r.} >.>.s C e r p d S 7 8 h h h h h r h d ( h e C 6 d 6 h F h s ,.8.e.>.>.r.e.9.q.9.9.y.w y >.+X",
"  c.c.c.u.3 y.e.9.r.r.9.e.9.9.9.e.r.>.X.>.| r d C 7 S 9 e ( 9 8 g g 9 ( 6 S 9 s 9 f 6 h S h s >.1.r.9.>.8.8.e.e.9.q.9.y.& n.x.c.",
"  c.c.c.y.3 y.9.r.| r.9.9.r.9.9.9.8.5.X.+.>.) t C d 9 r h h 9 r g _ 7 h e 8 9 p d 9 A f s S X.>.e.e.7.5.r.e.9.9.9.9.w.q.$ -X`.m.",
"  c.c.y...5 u.>.>.t r.9.r.r.9.9.e.e.2.>.>.>.>.A S ) 9 r _ 6 ( e g S 8 d h 8 f 9 e 9 A S _ >.4.9.r.9.9.e.0.r.9.r.9.r.{ M.U.-.^ C."
};
