/* XPM */
static char *cfb1425f66b6435b9ee8d249921221d2EoU6j1Qf1NQh9zix[] = {
/* columns rows colors chars-per-pixel */
"64 64 234 2 ",
"   c #C628AD",
".  c #020102",
"X  c #080809",
"o  c #160408",
"O  c #131315",
"+  c #1C1918",
"@  c #0F1710",
"#  c #2F170F",
"$  c #25221B",
"%  c #39231C",
"&  c #1F1C20",
"*  c #2C1F21",
"=  c #252226",
"-  c #2C2528",
";  c #372B27",
":  c #39353A",
">  c #332E2E",
",  c #463228",
"<  c #48372B",
"1  c #543C2D",
"2  c #443A38",
"3  c #432D27",
"4  c #4C562D",
"5  c #48542B",
"6  c #52582F",
"7  c #50552E",
"8  c #4B4737",
"9  c #5C4536",
"0  c #555A32",
"q  c #5C5D35",
"w  c #595839",
"e  c #4E4A2A",
"r  c #644A37",
"t  c #6C523D",
"y  c #6C5D3C",
"u  c #625C38",
"i  c #63432D",
"p  c #65623A",
"a  c #6C643E",
"s  c #616237",
"d  c #71653E",
"f  c #70683F",
"g  c #3A3A42",
"h  c #403C42",
"j  c #47454B",
"k  c #564E54",
"l  c #5A4E55",
"z  c #5B535B",
"x  c #585158",
"c  c #584D49",
"v  c #674D48",
"b  c #695545",
"n  c #735B42",
"m  c #715743",
"M  c #695858",
"N  c #735A59",
"B  c #6D6640",
"V  c #746541",
"C  c #756943",
"Z  c #7A6B45",
"A  c #7B674A",
"S  c #7C6F52",
"D  c #5C5963",
"F  c #635A62",
"G  c #6C5D64",
"H  c #665B65",
"J  c #785E67",
"K  c #6D646E",
"L  c #64636D",
"P  c #72646C",
"I  c #7B666D",
"U  c #6A6774",
"Y  c #726772",
"T  c #7B6E7B",
"R  c #766B76",
"E  c #76727F",
"W  c #7B717E",
"Q  c #FF5E19",
"!  c #826C4B",
"~  c #84694A",
"^  c #85714D",
"/  c #8A744F",
"(  c #8C6E54",
")  c #8C6C5A",
"_  c #846953",
"`  c #8D7354",
"'  c #8D715A",
"]  c #887654",
"[  c #927455",
"{  c #937A56",
"}  c #94745B",
"|  c #947B5A",
" . c #9B7D5C",
".. c #987857",
"X. c #906F51",
"o. c #9C7D61",
"O. c #917862",
"+. c #87767A",
"@. c #8D7475",
"#. c #A27E62",
"$. c #A86879",
"%. c #8E625D",
"&. c #2FE931",
"*. c #67AC63",
"=. c #9D825D",
"-. c #8A815E",
";. c #A2845E",
":. c #A7895F",
">. c #AA8B5F",
",. c #A08057",
"<. c #B18D5F",
"1. c #9E8161",
"2. c #958D6B",
"3. c #8F8678",
"4. c #A38562",
"5. c #A68963",
"6. c #AB8D65",
"7. c #AB8C69",
"8. c #A78C6A",
"9. c #B18F66",
"0. c #AE9166",
"q. c #AE9269",
"w. c #B19266",
"e. c #B2946A",
"r. c #B6996D",
"t. c #B99B6E",
"y. c #A68872",
"u. c #AB9776",
"i. c #B69C72",
"p. c #BA9D72",
"a. c #B29877",
"s. c #BDA275",
"d. c #BEA479",
"f. c #BAA87A",
"g. c #ACA37C",
"h. c #C0A476",
"j. c #C1A679",
"k. c #C4AB7C",
"l. c #C8AE7E",
"z. c #C8AB75",
"x. c #CBB17E",
"c. c #C5B17E",
"v. c #D1B376",
"b. c #FFFF53",
"n. c #7C7482",
"m. c #7B7687",
"M. c #7A6F83",
"N. c #1234FF",
"B. c #827684",
"V. c #8C7C8C",
"C. c #887887",
"Z. c #967E8B",
"A. c #897C97",
"S. c #936F81",
"D. c #AA798A",
"F. c #B8778A",
"G. c #AE7789",
"H. c #CB6E86",
"J. c #D46F8A",
"K. c #CF728B",
"L. c #26FFFF",
"P. c #93818D",
"I. c #998987",
"U. c #8B869B",
"Y. c #9A8492",
"T. c #948C9D",
"R. c #988995",
"E. c #9E9191",
"W. c #8C818D",
"Q. c #A5948C",
"!. c #B49E82",
"~. c #A48B94",
"^. c #A49897",
"/. c #AA888B",
"(. c #B9AB84",
"). c #B6A796",
"_. c #9A95A4",
"`. c #9C99AA",
"'. c #9A95A6",
"]. c #9490A6",
"[. c #A59CAC",
"{. c #ACAABC",
"}. c #A7A5B7",
"|. c #B9B5B7",
" X c #AFA9AB",
".X c #9FA0AF",
"XX c #C5AE81",
"oX c #C8AF81",
"OX c #C1AE8C",
"+X c #C6B282",
"@X c #CBB383",
"#X c #CCBA85",
"$X c #CEBB8A",
"%X c #CAB689",
"&X c #D0B584",
"*X c #D2BB86",
"=X c #D1BC8B",
"-X c #D9BC89",
";X c #CFB790",
":X c #CDC385",
">X c #CFC788",
",X c #D5C28D",
"<X c #D9C38E",
"1X c #D0C687",
"2X c #D4C391",
"3X c #DBC691",
"4X c #DCCA93",
"5X c #D8C899",
"6X c #D6CA98",
"7X c #E2CE94",
"8X c #E0CE98",
"9X c #E3D396",
"0X c #E4D49A",
"qX c #E6DA9B",
"wX c #EADB9D",
"eX c #E9D59A",
"rX c #E0CB8D",
"tX c #F2E39F",
"yX c #EDDDA1",
"uX c #F3DFA4",
"iX c #EEE2A4",
"pX c #F4E3A5",
"aX c #FCECAB",
"sX c #F7E8A7",
"dX c #FEF1AD",
"fX c #FFFAAF",
"gX c #F9EEB1",
"hX c #FFF4B3",
"jX c #FFFDB9",
"kX c #B5B5C8",
"lX c #ADAFC6",
"zX c #C0BEC2",
"xX c #C5C4D7",
"cX c #FFFFC6",
/* pixels */
"                                                                                                                                ",
"                                                                                                                                ",
"                                                                                                                                ",
"                                  . .                                                                                           ",
"                                `.: .                                           . . . . . .                                     ",
"                            n.L .XU : X                                         . . . . X X O h kX                              ",
"                          X O X n.kXxXO . . . $ $ + + 8 aX-XrX9X7XeX9X7Xx.wX%XO $ $ $ . . . h kX}.lX: .                         ",
"                          = xX{.I W.kX. . . . jXdXaXaXtXqX<Xc.k.=X=Xl.j.s.<XwXsXaXdXaX. . . : {.{.+.[.L                         ",
"                          {.{.v v R.kX}.lX^.h.k.k.f.j.j.j.j.h.6.@Xd.5.6.r.k.h.j.h.h.k.k.z.}.}.{.kXv _.D                         ",
"                          {.kXv N 1 % lX}.).z.j.k.j.l.j.k.s.6.0.6.6.0.6.6.s.k.k.k.k.j.l.z.}.lX+.9 b .Xk .                       ",
"                          {.N M N c 3 lX[.).l.k.k.k.l.5.0.6.0.0.9.6.6.w.5.9.9.5.k.l.k.k.z.}.}.n.M K T kXxX>                     ",
"                          F P M N c ; lX).z.k.k.l.r.0.6.[ q.s.e.e.6.6.6.XX6.[ 6.6.r.l.k.k.z.Q.H H G P U D O                     ",
"                          + n.G v O.i.XXk.k.k.h.r.;.~ A k.k.s.e.9.4.6.5.k.oXs._ ` 5.r.p.k.k.d.r.t.N P >                         ",
"                          + M.U R O.8.l.k.k.l.6.;.=.e.2Xk.j.f.s.9.4.4.h.s.l.j.3X4. .#.6.l.k.l.i.r.N Y g                         ",
"                              D }.P % @Xk.k.@Xn o.,X%X$Xj.l.h.e.9.e.e.9.k.k.k.%X=X,XA A @Xl.l.} ; k G :                         ",
"                              . . n l.l.k.h.5.f.@X=X+Xj.k.s.5.9.9.e.i.5.r.h.k.k.%X&X%Xh.5.h.l.k.&X% . .                         ",
"                              . . A &Xk.5.p.6.oXoXoXj.k.k.p.6.9.9.t.r.6.6.s.oXk.k.k.+Xk.5.s.6.k.*X3 . .                         ",
"                              . . 9 5.5.9.9.6.oXk.l.k.l.6.6.o.} 9.r.r.6.} 5.e.oXi.l.k.l.9.9.9.:.9.+ . .                         ",
"                              cXcXjXgXp.4.4.w.5.k.6.r.oX .4.4. .w.r.r.6.o.#.4.@X6.5.oX>.9.4.9.5XgXjXcXS                         ",
"                              (.u.>XgXXXo.} 6.9.6.9.5.4.) } w.e.9.r.r.9.w.o.} 4.w.w.e.9.7.} 7.0XgX(.!.8                         ",
"                              . . 3.cXsXu.) ) e.w.e.} } w.9.6.6.9.w.6.6.e.6.5.4.w.w.e.e.) ) XXhXcX= . . .                       ",
"                              .  XO . pX7.) o.O.) w.w.e.9.i.i.r.6.w.e.w.e.r.w.w.9.e.( ) o.' OX2.. *.@ $ -.                      ",
"                            sX. xX. . yXu.} 9.e.9.0.6.6.l.k.k.d.5.9.9.6.s.l.k.6.6.6.e.9.e...%X2.. *.@ 8 cX+ .                   ",
"                          4X .. . . . &Xl.l.9.9.9.6.j.k.k.k.l.j.&X6.6.6.l.k.k.l.l.w.5.e.6.l.k.t . . . ; [ jXw                   ",
"                        i.4.5.. . . . p.4.#.e.9.i.h.k.k.j.l.l.r.t.6.6.6.p.%XoXk.k.s.p.9.9.o.7.b . . . ; 8.O.f.                  ",
"                      p. .) ..g j + . 6.o.} 9.9.p.oXk.k.%Xx.r.q.9.9.w.6.w.l.=Xk.h.k.k.6.e.} 1.r . j h M  ._ p.+X2               ",
"                      5. .;.c.U m.- . 4.4.7.4.9.d.k.k.oXx.d.5.0.e.5.4.w.6.i.XX@Xk.k.k.6. .4.7.v . E L 3.x.( 6.s.eX+             ",
"                    ;.e.| 7.hX. . . . 8.4.4.7.r.k.XXk.=X6.6.w.0.6. . .w.9.6.6.=X@Xk.h.5.q.#.6.r . . . < dX[ 5.c.dXX .           ",
"                *X;.9.e. .7.iXdXhXsXeX .5.r.oXk.k.k.l.6.0.0.0.0.w.=. .q.9.w.6.:.k.k.k.oXoX7.5.e.wXfXfXaXwX{ ..e.iXhXqX.         ",
"              0Xj.6.w.....7.3XyX1X4X=X1.6.r.k.k.k.k.s.w.=.5.6.1.w.1.} 4.6.w.6.6.p.k.k.k.l.6.6.5.,X,X,X4X2X......+X3X2X.         ",
"            jXqXw.6.9.6.#.5.=XwX$X4X=X4.6.e.k.k.k.oXe.w.' 4.w.' 0.;.[ [ 6.e.e.e.6.h.k.k.l.6.6.5.,X=X$X0X3X..5.6.:.l.,X. .       ",
"          . <Xw.5.h.r.9.5.5.6.@X2Xe.~ e.6.e.l.k.k.4.7.e.) ' } ' >.9.w.<.) ) ( ( 9.6.k.k.oX6.6.6.X.[ @X2X&X[ ;.0.k.;.$XdXO .     ",
"          f.l.p.p.l.j.j.4.;.9.h.~ [ [ e.p.s.k.k.k.p.e.e.;.} [ ~ ^.^.E.E.` ( } 5.e.6.k.k.k.s.i.6.[ ~ e.( ;.[ 7.h.l.s.e.eX+X8     ",
"        c aXh.l.l.k.k.k.h.i.9.e., ( r.6.d.k.k.j.k.k.e.w.w.w.R.'..X`.`.`.`.Q.w.e.q.6.k.k.k.k.p.6.t.9 t 9 w.s.j.k.j.l.k.h.aXc .   ",
"        2.tXh.k.6.k.k.k.l.s.6.e. .6.q.6.s.l.j.k.k.k.e.9.y.8.T.`.T.`.`.`.`.E.7.y.e.e.k.k.k.k.p.6.e.;.5.;.9.oXk.j.l.0.j.h.sXw .   ",
"        sXp.oX9.r.k.j.k.k.s.6.w.5.7.0.p.j.j.l.j.j.k.x.d.A.V.'._.P '.'.W.`.T.Z.A.v.hXk.j.k.k.h.r.9.5.6.6.6.k.k.k.j.s.;.+X&X; .   ",
"      ] *Xk.t.5.p.k.k.k.l.s.6.q.e.6.7.l.k.j.r.$X=Xh.M.C.Y.Z.'.].Y '.'.P `.T.Y.Y.T +.sX&Xp.j.l.h.6.6.6.e.6.k.k.k.k.l.4.r.k.-XA   ",
"      ^ oXk.6.4.k.k.XXk.k.s.6.e.6.6.+Xk.k.j.;.aX9Xs.C.V.Y.Y.R.W.T _._.R P.Y.Y.Y.C.Z.rXsX0.s.l.k.oX6.6.w.6.k.k.k.k.k.6.6.k.@Xb . ",
"      S &Xl.6.e.k.k.k.k.w.6.w.7.w.6.l.k.k.j. .aX(.E.~.~.G G Z.Z.T K j B.R.W K B.Y.I.d.sX0.f.k.k.l.5.w.w.e.6.p.l.k.k.r.6.k.@Xb . ",
"    X ] oX>.5.k.k.k.j.k.w.6.0.e.6.5.k.k.k.s.;.aXa.].@.+.k k C.C.T l & W Z.G z T +.Z.I.sXq.s.k.k.oX5.6.w.6.6.p.k.k.k.j.6.6.%XC X ",
"    wX*X:.0.>.l.k.k.r.>.|  .q.5.oXe.k.l.6.r.iXs.!.U.. O Y H x k K z = T k x L R.. > U.pXaXq.e.XXk.6.+X6.5.) ;.9.k.k.k.0.6.:.*XsX",
"    6X+X>.0.>.#Xx.k.s.>.o.4.6.s.k.k.l.w.XX2X+Xk.!.].. . . - F x K x = B.x D : X . > U.,X=X;Xd.i.k.k.k.r.6.} 5.r.k.@Xx.9.0.6.c.9X",
"    wXk.e.6.>.>X:Xj.h.>.#.5.r.l.k.k.l.:.=X$Xh.h.!.U.O = & : F x U z = C.x z : + & h U.z.h.8XoX6.l.k.k.s.w.=.5.p.k.:X1X5.0.e.#X9X",
"  9XqX@Xk.w.6.:X:Xj.r.0.0.e.l.k.k.l.w.5.$X+X,X7X!.U.F F H D F H R z = B.z z M F M L W.7X3X5XoX5.e.l.k.l.p.9.w.7.k.#X:Xw.e.c.#X9X",
"  qX0Xs.k.l.k.:X:Xj.r.0.0.e.l.j.l.h.6.e.$X@XeX0X).U.D x l D Y M.B.z = C.L z x z x H _.wXeX5X%X9.e.d.k.l.s.5.9.e.k.:X:Xk.l.j.j.9X",
"  9X:X0.l.j.+X:X#Xk.j.q.s.d.l.k.l.0.6.k.,X,X0XqX5X].U R x U n.T n.z = C.n.U F x Y E |.eX9X5X=Xh.6.e.l.j.j.s.r.h.j.:X1Xj.k.l.5.,X",
"  9Xs.e.s.k.c.c.k.j.k.k.k.k.j.k.j.r.l.d.4XpXyXpX5Xm.E W Y R T M.n.z = B.W n.R L n.C.|.tXyXiX3Xj.l.r.k.k.k.k.k.k.k.:Xc.j.k.s.q.f.",
"  qXf.q.q.l.k.k.k.k.j.k.k.k.k.k.j.k.k.%X$X@X$X$X4X4X#XW.E M.M.M.n.z = m.E E M.M.3.@X=X=X=X=X=X+Xj.j.k.k.k.k.k.k.j.k.j.k.c.q.q.j.",
"  x.h.0.r.l.k.l.j.j.k.j.k.d.k.j.%X$X$X@X9X9X9X4X@X$X*X3.@.$.$.$.$.N & G.$.$.G.U 2X=X5X4X4X9X$X@X$X$Xl.j.k.k.k.k.k.k.XXk.k.q.q.s.",
"  x.r.4.q.l.l.8.s.l.k.k.k.k.+X$X@Xk.f.pX,X$X@X=X$X@X*XI.S.H.J.J.$.%.& G.$.H.J.m.(.@X#X,X$X%X,XeXf.%X$X$Xk.k.j.k.k.s.q.l.l.q.5.i.",
"  e.k.q.| x.k.e.=.l.f.k.j.@X%Xj.s.j.+X3X+X=X+X,X7X9X0X^.Z.G.F.K.G.J - /.H.H.D.V.).eXk.4X,X(.,X=Xk.k.s.k.$X+Xk.j.l.` i.k.c.} r.s.",
"  6.0.=.8.l.k.r.1.@Xl.k.l.x.k.f.s.oXq.j.,X0X0Xh.1X4X9XQ.V.D.F.H.D.J - Y.H.F.D.V.).tXiXi.9X9X;Xd.q.XXr.j.k.+Xk.l.#X` p.l.+X4.=.0.",
"  0.w.=.6.k.l.i.h.i h.k.l.k.j.l.s.k.i.k.qXd.4Xj.7XyXwX8XV.Y.Z.H.F.J - F.H.Z.P.V.$X9X0X,X=XXX8Xp.i.+Xi.k.k.j.l.j.r j.p.l.l.4.=.w.",
"  r.0.=.q.4.+Xc.@X .t t r.k.+X5.i.oXe.XX%X=X8Xp.<X3X4XqXB.V.Z.F.F.%.g K.G.Z.P.B.tX,X3X@XyX%XoXh.r.%X8.q.@Xs.` r ;.@Xl.+X=.q.=.e.",
"  x.5.=.=.=.6.r.{ 0.^ n t A :.k. .4.oXe.@X2Xk.XX@XoX=XyX;XT.T.[.[.B.= }.'.T.E.%XsX@X=Xk.XX4Xk.r.l.[ q.e.,.r t t -X~ h.;.=.=.=.5.",
"  k.k.e.5.1.=.5.l./ ! ^ ! n i j.;.l.l.6.j.i.%X0XoX@Xp.q.jX}.`.> : - + : k lX XfX5.e.4XeX@XoXh.6.&Xs. .^ r t ! !  .&X=.=.=.5.e.j.",
"  k.k.s.q.q.q.5.l.8.8.1 5.1.=.e ! ;.r.p.h.=XyX=Xe.oXe.@X. o # < , 1 1 , % o o . oX>.3XeXsX%Xd.XXi y ^ n r t ] =.e.l.5.q.q.q.s.l.",
"  k.x.[ V q.6.6.5.0.q.=.6.5.5.{ { S a e.v.! uXaXuX<.eX@XhX9 , , 3 3 , 3 n hXsXsX-X2Xh.aX4.u.d C ! Z ^ t -.Z 0.0.6.5.q.q.q.t =.l.",
"  k.l.| V e.0.0.0.0.6.6.8.6.q.| =.{ ^ s C q 7 7 B 7 q q 6 4 7 d m y y y y q 0 u d aXw 4 p Z ^ ! B ^ / 5.:.w.q.8.6.6.0.6.e.n 1.c.",
"  k.x.} A r.5.0.5.0.6.6.0.0.6.0.5.| { 4 a C 5 7 q u d 4 4 7 q f ~ V Z d Z q q q C 5 ! 5 q ` / Z s ^ 0.=.;.0.6.6.6.6.6.6.p.n =.l.",
"  k.l...9 t w.6.6.6.q.6.0.6.6.6.q.{ | =.p B 6 0 u p Z 4 6 Z f d f f 0 f u Z f 0 B 5 p 4 f ^ a s ;.8.q.=.=.0.0.6.7.5.9.e.9 i =.l.",
"  k.j.l.q.1 r.0.6.q.6.6.6.6.6.q.6.0.=.{ =.] q B B 4 Z 7 6 Z 4 4 d d 6 Z 5 Z 6 u 6 a 5 f Z a s =.=.q.0.=.5.0.6.6.7.6.6.e.% x.j.k.",
"  j.k.l.r.1 q.0.q.] 0.6.q.q.6.6.0.5.:.-.| | ^ q B p 6 q Z f 0 0 d / 5 Z 0 7 6 p p 0 C p s Z -.:.q.6.:.=.0.8.0.6.6.6.6.7.# -X(.v.",
"  l.k.q.[ e r.=.=.w q.q.5.q.6.6.0.0.5.=.=.=.=.C Z ^ 6 q / 5 ! 0 a ~ 4 p Z 6 p 6 0 0 C Z / =.1.6.8.6.0.q.0.0.8.6.0.0.X.b.L.&.Q N."
};
