/* XPM */
static char *fc1b331a1d94448bdc22ac97e3626eb7VDolLWp5Sc1md4OG[] = {
/* columns rows colors chars-per-pixel */
"32 32 76 1 ",
"  c #0D1212",
". c #0D1213",
"X c #0E1213",
"o c #101617",
"O c #151514",
"+ c #101618",
"@ c #111718",
"# c #1A1B19",
"$ c #1B1B1A",
"% c #1B1C1A",
"& c #1B1C1B",
"* c #1C1D1B",
"= c #1B1E1D",
"- c #1D1D1C",
"; c #1D1E1C",
": c #1E1F1D",
"> c #1C1F1E",
", c #20201F",
"< c #20211F",
"1 c #1D2020",
"2 c #1F2121",
"3 c #1D2122",
"4 c #1E2222",
"5 c #212220",
"6 c #202323",
"7 c #232322",
"8 c #232422",
"9 c #212525",
"0 c #2C3132",
"q c #303536",
"w c #303537",
"e c #343839",
"r c #34393A",
"t c #36383A",
"y c #3B3939",
"u c #3A383A",
"i c #3B383B",
"p c #3C3A3B",
"a c #3C3A3D",
"s c #3D3B3D",
"d c #3C3B3E",
"f c #3A3C3E",
"g c #3D3C3E",
"h c #3E3D3E",
"j c #383F40",
"k c #3F3D40",
"l c #3F3E41",
"z c #3F3F41",
"x c #394041",
"c c #3D4446",
"v c #3F4648",
"b c #404748",
"n c #404749",
"m c #42494B",
"M c #43494B",
"N c #434A4C",
"B c #444B4D",
"V c #454B4D",
"C c #454C4E",
"Z c #464C4E",
"A c #464D4F",
"S c #4C4F4E",
"D c #485456",
"F c #4B5659",
"G c #4C575A",
"H c #4C585B",
"J c #4D595C",
"K c #4D5B5E",
"L c #4F5D60",
"P c #505D61",
"I c #516164",
"U c #516165",
"Y c #536266",
"T c #536366",
"R c #536367",
"E c #9D721A",
/* pixels */
"wwwwww00wwwww0000eww0wwwww0ww00w",
"xxxxxxjjxxxxxfjjxxxxxxxxxxxxxxxx",
"jjjjjjjjjjjjxjjjfxxxxxxxxxxxrxxx",
"xxxxxxxxxxxxxxxxxxxxxxxxxxxxxxxx",
"vvvnvvvvnvvvvvvnvvvvvvvvvvvvvvvv",
"CCCCCCCCCCCCCCCCBBCCCCCCCCCCCCCC",
"CAAAAACAAAAACAAAAAAAAAAAAAAAAAAA",
"AAAAAAAAAAAAAAAAAAAAAAAAAAAAAAAA",
"AAAAAAAAAAAAAAAAAAAAAAAAAAAAAAAA",
"AAAAAAAAAAAAAAAAAAAAAAAAAAAAAAAA",
"AAAAAAAAAAAAAAAAAAAAAAAAAAAAAAAA",
"AAAAAAAAAAAAAAAAAAAAAAAAAAAAAAAA",
"AAAAAAAAAAAAAAAAAAAAAAAAAAACACCC",
"SSSSSSSSSSSSSSSSSSSSSSSSSSSSDSSS",
"EEEEEEEEEEEEEEEEEEEEEEEEEEEEEEEE",
"EEEEEEEEEEEEEEEEEEEEEEEEEEEEEEEE",
"SSSSSSSSSSSSSSSSSSSSSSSSSSSSSSSS",
"AAAAAAACAAACAAACAAAAAAAAAAACAAAA",
"RRRRRRRRRRRRRYJJRJRRRJYRRJJJHTRR",
"@+@+@+++@+@+++X @ @@+ +++X   +++",
";O;*$O;$*O;*$O;$%O;%%O;*$O;$*O;$",
",*855;88,*88,;885%885%88,;88,*88",
"5:885;885:885,885:885:885:885:88",
"8:888;888;888;888:885:888:888;88",
"75887,88557875578,888:8855887,88",
"5,78,,,85,775,575,7755585578,,,8",
"*%,7;%,8;$57;$17;$57;$:8;$,7;%,8",
"339913981163=;66:399339833993398",
"TTRRJYRLLLLFDFLLLRRYIRRRIIRRJRRP",
"nGCVCJCCAHVvMHVAAJBmMHVCmHCMCHCC",
"miMAZimCViMnMiMAVsmCCimcMiMCCimm",
"hiishihbzssefeefzkfzhssihiihhsfi"
};
