/* XPM */
static char *_c3ceb57ff924cd4ec87a12daeaa4396Kp6LbnVOpOMTzFP9[] = {
/* columns rows colors chars-per-pixel */
"32 32 107 2 ",
"   c #010101",
".  c #020202",
"X  c #080D0E",
"o  c #090E0F",
"O  c #0D1212",
"+  c #0D1213",
"@  c #101617",
"#  c #151514",
"$  c #101618",
"%  c #111718",
"&  c #1A1B19",
"*  c #1B1B1A",
"=  c #1B1C1A",
"-  c #1B1C1B",
";  c #1C1D1B",
":  c #1B1E1D",
">  c #1D1D1C",
",  c #1D1E1C",
"<  c #1E1F1D",
"1  c #1C1F1E",
"2  c #20201F",
"3  c #20211F",
"4  c #1D2020",
"5  c #1F2121",
"6  c #1D2122",
"7  c #1E2222",
"8  c #212220",
"9  c #202323",
"0  c #232322",
"q  c #232422",
"w  c #212525",
"e  c #2C3132",
"r  c #2A3234",
"t  c #303536",
"y  c #303537",
"u  c #343839",
"i  c #34393A",
"p  c #36383A",
"a  c #3B3939",
"s  c #3A383A",
"d  c #3B383B",
"f  c #3C3A3B",
"g  c #3C3A3D",
"h  c #3D3B3D",
"j  c #3C3B3E",
"k  c #3A3C3E",
"l  c #3D3C3E",
"z  c #3E3D3E",
"x  c #7B613B",
"c  c #7D623A",
"v  c #79613C",
"b  c #78603D",
"n  c #313E41",
"m  c #333F42",
"M  c #383F40",
"N  c #3F3D40",
"B  c #3F3E41",
"V  c #3F3F41",
"C  c #394041",
"Z  c #3D4446",
"A  c #3F4648",
"S  c #404748",
"D  c #404749",
"F  c #42494B",
"G  c #43494B",
"H  c #434A4C",
"J  c #444B4D",
"K  c #454B4D",
"L  c #454C4E",
"P  c #444D4F",
"I  c #464C4E",
"U  c #464D4F",
"Y  c #494E4E",
"T  c #4A4E4E",
"R  c #4C4F4E",
"E  c #414F52",
"W  c #444E50",
"Q  c #464E50",
"!  c #474F51",
"~  c #495355",
"^  c #4A5356",
"/  c #485456",
"(  c #485559",
")  c #4B5659",
"_  c #4C575A",
"`  c #4C585B",
"'  c #4D595C",
"]  c #4D5B5E",
"[  c #645846",
"{  c #665846",
"}  c #685945",
"|  c #6A5A44",
" . c #4F5D60",
".. c #505D61",
"X. c #516164",
"o. c #516165",
"O. c #526266",
"+. c #536266",
"@. c #536366",
"#. c #536367",
"$. c #9C721A",
"%. c #9D721A",
"&. c #9B711C",
"*. c #8E6A2D",
"=. c #8C6A2F",
"-. c #997020",
";. c #8B6930",
/* pixels */
"y y y y y y e e y y y y y e e e y y y y y y y y y y y y y e e y ",
"C C C C C C M M C C C C C M M M C C C C C C C C C C C C C M M C ",
"M M M M M M M M M M M M M M M M M M M M M M M M M M M M M M M M ",
"C C C C C C C C C M M M C C C C C C C C C C M M C C C C C C C C ",
"A A A S A A A A A A A A A A A S A A S A A A A A A A A A A A A A ",
"I I I I L L L L I J J Q I I I I L L I I I I J I J I I I L L L L ",
"I Q L Q Y Q L Q Q I Q I Q I Q I Q Q L Q I Q I Q Q I I Q L Q Q Q ",
"Q I Q L Q L Q L I Q I Q I Q I Q Q L Q L Q I Q I I Q Q Y Q L Q L ",
"I Q I Q I Q I Q I Q I Q Q I Q I Q I Q I Q I Q I Q I Q I Q I Q I ",
"Q I Q I Q I Q I Q I Q I I Q I Q I Q I Q I Q I Q I Q I Q I Q I Q ",
"I Q I Q I Q I Q I Q I Q Q I Q I Q I Q I Q I Q I Q I Q I Q I Q I ",
"Q I Q I Q I Q Y Q I Q I I Q I Q I Q I Q I Q Y Q I Q I Q I Q I Q ",
"I Q L Q L Q L Q I Q I L Q L I I Q Q I Q L Q L L L Y L I Q I Q I ",
"R Y R R R R R R R R R R R R R Y Y I Q I Y Y Q Y R R R R Y R R R ",
"%.%.%.%.%.%.%.%.%.%.%.=.=.=.-.x b Y I Q [ b } ;.=.%.=.=.%.%.%.%.",
"%.%.%.%.%.%.%.%.%.%.=.} =.} c } Y I Q I Y { { c c &.&.%.%.%.%.%.",
"R R R Y R R R Y R R Y L Y Q Y Y Q ~ Q I L Y Q Y Y R R R R R R R ",
"Y Q L Q Y Q L Q Q L Q Q L Q Q ~ ( m W Q Q Q L Q Q Y L Q Q L L Q ",
"#.#.#.#.#.#.+.#.+.#.+.#.#.+.E m X   r ( #.' #.#.+.' ` _ _ +.#.#.",
"% % % $ % % % % % % % % % %           X % + % + % + + + + % % % ",
"* # ; * * # ; = * # < * * # ; * * # < * * # < * * # < * * # < * ",
"4 < 0 0 2 < q q 8 ; 0 8 5 < q q 5 ; q q 3 = q q 3 < 8 q 8 ; 0 8 ",
"8 < 0 q 8 < q q 8 < q q 8 < q q 8 < q q 8 < q q 8 < q q 8 < q q ",
"0 < q q 0 < q q 0 < q q 0 < q q 8 2 q q q < q q 8 < q q 0 < q q ",
"0 3 q q q 8 8 0 8 8 0 q 0 8 0 0 8 8 q q 0 3 q q q 8 0 q 0 3 0 0 ",
"8 3 8 q 8 8 8 0 8 4 0 0 8 2 8 q 8 8 0 q 8 2 8 q 8 8 0 w 8 8 3 0 ",
"; = 5 8 < * 2 0 < * 8 0 < * 5 8 < * 8 8 < * 5 8 < * < 8 < = 2 0 ",
"5 5 w w 4 5 w 9 4 4 8 8 ; ; 7 9 4 5 w 7 5 5 w w 5 5 w w 4 7 w 8 ",
"@.@.@.+.' +.+. ...] ..( ~ (  . . .+.#.+.+.+.@.@.X.+.@.+.' +.+. .",
"G ( L I Q ` J Q Q ` I A J ` J I Q ` J J G ` J L A _ J I Q ` J Q ",
"G s G L L s G L I s J S G s J W I d A Q L f G Z J s G L I g J A ",
"l s g l l l B B B g g s M y i g B B g B l l l s l s f g l g g g "
};
