/* XPM */
static char *_889368228b24041d06cbf30f7e27f076rOGEt590oA13Hzn[] = {
/* columns rows colors chars-per-pixel */
"32 32 123 2 ",
"   c #070808",
".  c #0D1112",
"X  c #0D1212",
"o  c #0D1213",
"O  c #101617",
"+  c #151514",
"@  c #101618",
"#  c #111718",
"$  c #1A1B19",
"%  c #1B1B1A",
"&  c #1B1C1A",
"*  c #1B1C1B",
"=  c #1C1D1B",
"-  c #1B1E1D",
";  c #1D1D1C",
":  c #1D1E1C",
">  c #1E1F1D",
",  c #1C1F1E",
"<  c #20201F",
"1  c #20211F",
"2  c #1C1F20",
"3  c #1D2020",
"4  c #1F2121",
"5  c #1D2122",
"6  c #1E2222",
"7  c #212220",
"8  c #202323",
"9  c #232322",
"0  c #232422",
"q  c #212525",
"w  c #212526",
"e  c #272C2D",
"r  c #2A2F2F",
"t  c #2B2F30",
"y  c #2C3132",
"u  c #303536",
"i  c #303537",
"p  c #303637",
"a  c #323636",
"s  c #323739",
"d  c #343839",
"f  c #34393A",
"g  c #36383A",
"h  c #363A3B",
"j  c #373A3B",
"k  c #373B3B",
"l  c #3B3939",
"z  c #3A383A",
"x  c #3B383B",
"c  c #3C3A3B",
"v  c #3C3C38",
"b  c #3D3C38",
"n  c #3F3D3A",
"m  c #393A3C",
"M  c #393B3D",
"N  c #3A3A3C",
"B  c #3C3A3D",
"V  c #3D3B3D",
"C  c #3C3B3E",
"Z  c #393C3C",
"A  c #393C3D",
"S  c #393C3E",
"D  c #3A3C3E",
"F  c #3D3C3E",
"G  c #3E3D3E",
"H  c #383F40",
"J  c #393F41",
"K  c #3F3D40",
"L  c #3F3E41",
"P  c #3F3F41",
"I  c #394041",
"U  c #394042",
"Y  c #3A4143",
"T  c #3A4243",
"R  c #3E4143",
"E  c #3D4446",
"W  c #3C4648",
"Q  c #3D4749",
"!  c #3F4648",
"~  c #3D484B",
"^  c #404340",
"/  c #404042",
"(  c #404748",
")  c #404749",
"_  c #41484A",
"`  c #42494B",
"'  c #43494B",
"]  c #434A4C",
"[  c #444B4D",
"{  c #454B4D",
"}  c #454C4E",
"|  c #464C4E",
" . c #464D4F",
".. c #4A4A49",
"X. c #4C4F4D",
"o. c #4C4F4E",
"O. c #414F51",
"+. c #424F52",
"@. c #474E50",
"#. c #474F51",
"$. c #474F52",
"%. c #425053",
"&. c #485456",
"*. c #455558",
"=. c #47575A",
"-. c #4B5659",
";. c #4C575A",
":. c #4C585B",
">. c #4D595C",
",. c #4D5B5E",
"<. c #505757",
"1. c #4F5D60",
"2. c #505D61",
"3. c #516164",
"4. c #516165",
"5. c #526265",
"6. c #536266",
"7. c #536366",
"8. c #536367",
"9. c #9D721A",
"0. c #9A701E",
"q. c #9A711F",
"w. c #9A7120",
/* pixels */
"i i i i i i y y i i i i i y e 2 6 y s p s i i s i i s i i y y s ",
"I I I I I I H H I I I I I I H t f U T I H T H H H H H T H H H H ",
"H H H H H H H H H H H H N ;.I t y N ;.U H H H H H H H H H H H H ",
"I I I I I I I I I I I H N A I t f S S U H H H H H T H H I H H H ",
"! ! ! ! ! ! ! ! ! ! ! ! ( ( ( a ~ ` ! ! ! ! ! ! ! ! ! E ( ( ! ! ",
"} } } } } } } } } } } } } } } f *.%.@.` } } @.` } } } } @.} } } ",
"} @.} @.} @.} @.} @.} @.} @.@.A =.@.} } @.@.} @.@.@.} @.} @.@.@.",
"@.} @.} @.} @.} @.} @.} @.} } A =.&.o.@.@.} @.} @.} @.} @.} @.} ",
"} @.} @.} @.} @.} @.} @.@.} @.h +.@.} @.} @.} @.} @.} @.} @.} @.",
"@.} @.} @.} @.} @.} @.} } @.} h +.@.@.} @.} @.} @.} @.} @.} @.} ",
"} @.} @.} @.} @.} @.} @.@.} @.h O.@.} @.} @.} @.} @.} @.} @.} @.",
"@.} @.} @.} @.} @.} @.} } @.} h ! @.@.} @.} @.} @.} @.} @.} @.} ",
"} @.} @.} @.} @.} @.} @.} @.} f W @.@.@.} @.} @.@.} @.} } @.} @.",
"o.o.o.o.o.o.o.o.o.o.o.o.o.o.o.f J @.o.o.o.o.o.o.o.o.o.o.o.o.o.o.",
"9.9.9.9.9.9.9.9.9.9.9.9.9.9.0.b R w.9.9.9.9.9.9.9.9.9.9.9.9.9.9.",
"9.9.9.9.9.9.9.9.9.9.9.9.9.9.0.b n w.9.9.9.9.9.9.9.9.9.9.9.9.9.9.",
"o.o.o.o.o.o.o.o.o.o.o.o...<.o.S k ..<.X.o.o.o.o.o.o.o.o.o.o.o.o.",
"} @.} @.@.} @.@.} @.} @.R R } h k / R } } @.@.} } @.} @.@.} } @.",
"8.8.8.8.7.8.8.8.8.8.7.7.6.7.>.N A :.7.7.8.>.:.:.7.>.:.:.;.7.8.8.",
"# @ # @ # @ # # # # # O O O o     X O O # X X X # X o X o @ # @ ",
"% + : % % + : % & + : % * + : % = + : = % + : = % + : % % + = % ",
"4 & 0 7 7 : 0 0 7 & 0 0 7 : 9 0 < = 0 0 < = 0 0 < : 0 0 4 = 0 0 ",
"7 > 0 0 7 : 0 0 7 > 0 0 7 : 0 0 < > 0 0 < > 0 0 7 > 0 0 7 > 0 0 ",
"0 > 0 0 0 : 0 0 0 : 0 0 0 : 0 0 0 > 0 0 0 > 0 0 0 > 0 0 0 : 0 0 ",
"9 7 0 0 9 7 7 9 0 < 0 0 9 < 7 9 7 < 0 0 0 < 9 0 9 < 0 0 0 < 7 0 ",
"7 7 9 0 7 7 7 9 < < 0 0 7 < 7 0 7 7 0 0 7 < < 0 7 < 7 0 7 7 7 0 ",
": % 4 7 : % < 7 : % < 7 : % > 0 : % 4 7 : % < 9 : & 4 0 : % < 9 ",
"2 4 q q 2 6 q 8 4 2 8 4 : , q 4 4 4 q q 4 4 q q 4 4 q q 2 4 q 8 ",
"8.7.7.7.>.6.6.2.2.,.2.;.&.;.1.1.1.7.8.4.3.6.6.6.1.7.8.7.>.7.7.1.",
"! ;.} _ @.:.` @.@.:.} ( ` :.` @.@.;.[ ` } ;.} } ~ >.` ` @.:.` @.",
"` N ' o.} x } } } x ` ( ` x ` @.} N ` @.} x _ E } x ' o.} x ` _ ",
"C c c C G C R L L C C h N d h N L L N L G C G x C c c C G C C C "
};
