/* XPM */
static char *bb1b978025f44188d1001b1bbefa89b3opjOnT5teBmDHDff[] = {
/* columns rows colors chars-per-pixel */
"32 32 131 2 ",
"   c #0D1212",
".  c #0D1213",
"X  c #0E1213",
"o  c #101617",
"O  c #151514",
"+  c #101618",
"@  c #111718",
"#  c #1A1B19",
"$  c #1B1B1A",
"%  c #1B1C1A",
"&  c #1B1C1B",
"*  c #1C1D1B",
"=  c #1B1E1D",
"-  c #1D1D1C",
";  c #1D1E1C",
":  c #1E1F1D",
">  c #1C1F1E",
",  c #20201F",
"<  c #20211F",
"1  c #1D2020",
"2  c #1F2121",
"3  c #1D2122",
"4  c #1E2222",
"5  c #212220",
"6  c #202323",
"7  c #232322",
"8  c #232422",
"9  c #212525",
"0  c #2C3132",
"q  c #343032",
"w  c #303536",
"e  c #303537",
"r  c #343839",
"t  c #34393A",
"y  c #36383A",
"u  c #3B3939",
"i  c #3A383A",
"p  c #3B383B",
"a  c #3C3A3B",
"s  c #383B3C",
"d  c #3C3A3D",
"f  c #3D3B3D",
"g  c #3C3B3E",
"h  c #3A3C3E",
"j  c #3D3C3E",
"k  c #3E3D3E",
"l  c #423735",
"z  c #473D39",
"x  c #413F3F",
"c  c #49423F",
"v  c #7B613B",
"b  c #7B623B",
"n  c #7D623A",
"m  c #7E633A",
"M  c #7A613C",
"N  c #383F40",
"B  c #393F40",
"V  c #3F3D40",
"C  c #3F3E41",
"Z  c #3F3F41",
"A  c #394041",
"S  c #3D4446",
"D  c #3F4648",
"F  c #404647",
"G  c #484644",
"H  c #494644",
"J  c #484645",
"K  c #484745",
"L  c #484746",
"P  c #404748",
"I  c #404749",
"U  c #42494B",
"Y  c #43494B",
"T  c #464949",
"R  c #474949",
"E  c #474A48",
"W  c #474A4A",
"Q  c #434A4C",
"!  c #444B4D",
"~  c #454B4D",
"^  c #434D4F",
"/  c #454C4E",
"(  c #464C4E",
")  c #464D4F",
"_  c #474D4F",
"`  c #494E4E",
"'  c #4A4E4E",
"]  c #4C4F4E",
"[  c #4D4F4E",
"{  c #4E514E",
"}  c #52514C",
"|  c #464E50",
" . c #475153",
".. c #4F5452",
"X. c #495355",
"o. c #485456",
"O. c #485457",
"+. c #4F5454",
"@. c #495558",
"#. c #4B5659",
"$. c #4C575A",
"%. c #4C585B",
"&. c #4D595C",
"*. c #4D5B5E",
"=. c #505A5C",
"-. c #685945",
";. c #6A5A44",
":. c #4F5D60",
">. c #505D61",
",. c #516164",
"<. c #516165",
"1. c #536266",
"2. c #536366",
"3. c #536367",
"4. c #9C721A",
"5. c #9D721A",
"6. c #9B711C",
"7. c #9A701E",
"8. c #9A711E",
"9. c #9B721F",
"0. c #9C721D",
"q. c #8F6B2C",
"w. c #8E6A2D",
"e. c #8C6A2F",
"r. c #997020",
"t. c #8B6930",
"y. c #8A6831",
"u. c #8A733D",
"i. c #8B743E",
"p. c #A47F25",
"a. c #A47F26",
/* pixels */
"e e e e e e 0 0 e e e e 0 0 0 0 e e e e e e e e e e e e e 0 0 0 ",
"A A A A A A N N A A A A A A N N A A A A A A A A A A A A A N A A ",
"N N N N N N N N N N N N A A A N N N N N N N N N N N N N N A A A ",
"A A A s q N A A A A N N A A A A A A A A A A A N A A A A A A A A ",
"D D S c l F P D D D D D D D D D D D D D D D D D D D D D D D D D ",
"! ( ^ J c ( T ( ( ! ! | ( ! ( ( ( ( ( ! ( ! ( ! ( ^ ( ! ( ^ ( ( ",
"| ( | K J ( z J | ( | ( | ( ( | | | ( | | | ( | | ( | ( | ( | ( ",
"( | ( W K ( J T ( | ( | ( | | ( | ( | ( | ( | ( ( | ( | ( | ( | ",
"| ( | ( K | W W | ( | ( ( | ( | ( | ( | ( | ( | | ( | ( | ( | ( ",
"( | | ( W ( | ( ( | ( | | ( | ( | ( | ( | ( | ( ( | ( | ( |  .| ",
"( | ( | ( | ( | | ( | ( ( | ( | ( | ( | ( | ( | | ( | ( (  .%.| ",
"| ( | ( | ( | ( ( | ( | | ( | ( | ( | ( | ( | ( ( | ( ! D | | ( ",
"( | ( ( ( | ( ( | ( | ( | ( ' | ( | ( | ( | ( | ( ( @.( O.X.| | ",
"] ' ' ] ] ' ' ] ' { ' ( ] ' ] ] ' { ' ( ' | ' { { ..*.K +.] ' { ",
"4.e.e.e.r.m e.q.e.7.m } r.4.4.4.4.7.M -.t.;.m r.i.a.q.7.e.7.i.p.",
"e.;.e.;.m t.e.4.4.e.v M m t.q.4.4.4.e.v -.M 7.q.7.4.e.m ;.0.p.4.",
"' | ' ( ' ' ] ' ' ' ' ' ' ' ' ] { { ' ' | ' ' { ' ] ' ' | { ' ' ",
"( ( | | ( | ( | ( | ( | ( | ( ( ( ( | ( ( ( ( | | ( ( ( ( | | ( ",
"3.3.3.3.3.3.3.3.3.3.1.3.3.1.%.*.1.*.1.1.1.*.1.1.1.*.$.%.%.1.3.3.",
"+ + @ + @ + @ @ @ @ @ + @ + . . o . + + @ . + + @ . . . . o @ @ ",
"= O : # # O : % % O : # # O : * % O : # # O : # # O : * % O : # ",
", % 8 8 , : 5 8 5 % 8 8 , : 5 8 5 % 8 8 , : 8 8 5 : 5 8 < * 8 5 ",
"5 : 8 8 5 , 8 8 5 : 8 8 5 : 8 8 5 : 8 8 < : 8 8 5 : 8 8 5 : 8 8 ",
"5 : 8 8 5 , 8 8 5 : 8 8 7 : 8 7 8 : 8 8 5 , 8 8 5 : 8 8 5 , 8 8 ",
"8 5 8 8 7 5 5 7 5 5 7 8 7 5 7 7 7 < 8 7 7 < 8 8 7 5 8 8 7 < 7 7 ",
"5 5 7 7 5 5 5 7 5 , 7 7 5 , 5 7 < < 7 7 5 1 5 8 5 5 7 7 5 < < 8 ",
"% # 5 5 : # , 7 : # 5 8 : # , 5 : $ , 7 : # , 5 - # , 7 : % , 7 ",
"3 3 9 9 1 3 9 6 1 1 4 5 = = 6 6 , 3 9 9 3 3 9 9 3 3 9 9 1 4 9 5 ",
"3.3.1.1.*.1.1.>.>.*.>.@.O.$.:.:.*.3.3.1.1.2.2.1.1.1.1.1.*.1.1.:.",
"U @.^ ( ( $.( ( | $.( D ! @.! ( | %.( U T %.^ ( D @.! ! ( %.( | ",
"U i T | ( p U ( ( i ! D U i ( ( ( g U ( ( p U S ( i T | _ p U D ",
"j p p g j x V A Z g g i s r y s V V s Z j g j i g i p g x g g s "
};
